<svg width="25" height="25" viewBox="0 0 25 25" fill="none" xmlns="http://www.w3.org/2000/svg">
<g clip-path="url(#clip0_8:49)">
<path d="M12.5 25C19.4035 25 24.9998 19.4037 24.9998 12.5002C24.9998 5.59679 19.4035 0.00044632 12.5 0.00044632C5.59659 0.00044632 0.000244141 5.59679 0.000244141 12.5002C0.000244141 19.4037 5.59659 25 12.5 25Z" fill="#CB2027"/>
<path d="M13.0471 16.259C12.1021 16.1859 11.7051 15.7173 10.964 15.2674C10.5567 17.4045 10.0589 19.4531 8.58448 20.5233C8.12882 17.2933 9.2525 14.8672 9.77434 12.2921C8.88485 10.7947 9.8813 7.78086 11.7574 8.52352C14.0665 9.43664 9.7583 14.0911 12.6505 14.6725C15.6699 15.2794 16.9026 9.4333 15.03 7.53175C12.3245 4.78638 7.15487 7.46936 7.79058 11.3995C7.94544 12.3603 8.93832 12.6519 8.1872 13.9777C6.45566 13.5942 5.93916 12.2286 6.00556 10.4079C6.11274 7.42769 8.68342 5.34098 11.2619 5.0522C14.5229 4.68722 17.5835 6.24964 18.006 9.31698C18.4813 12.7789 16.5338 16.5281 13.0471 16.259Z" fill="#F1F2F2"/>
</g>
<defs>
<clipPath id="clip0_8:49">
<rect width="25" height="25" fill="white"/>
</clipPath>
</defs>
</svg>
