<svg width="25" height="25" viewBox="0 0 25 25" fill="none" xmlns="http://www.w3.org/2000/svg">
<path d="M12.5 25C19.4036 25 25 19.4036 25 12.5C25 5.59644 19.4036 0 12.5 0C5.59644 0 0 5.59644 0 12.5C0 19.4036 5.59644 25 12.5 25Z" fill="#4D76A1"/>
<path fill-rule="evenodd" clip-rule="evenodd" d="M12.0305 18.3244H13.0116C13.0116 18.3244 13.3079 18.2919 13.4592 18.1288C13.5985 17.9791 13.594 17.6978 13.594 17.6978C13.594 17.6978 13.5749 16.3814 14.1859 16.1875C14.7881 15.9966 15.5616 17.4599 16.3813 18.0225C17.0012 18.4483 17.4723 18.355 17.4723 18.355L19.6642 18.3244C19.6642 18.3244 20.8109 18.2538 20.2672 17.3522C20.2226 17.2785 19.9505 16.6853 18.6374 15.4665C17.2631 14.1908 17.4471 14.3972 19.1027 12.1905C20.111 10.8467 20.5141 10.0262 20.3882 9.67483C20.2681 9.34015 19.5265 9.42861 19.5265 9.42861L17.0585 9.44399C17.0585 9.44399 16.8756 9.41903 16.7399 9.50014C16.6073 9.57969 16.5219 9.76508 16.5219 9.76508C16.5219 9.76508 16.1313 10.805 15.6104 11.6894C14.5114 13.5555 14.072 13.654 13.8924 13.5382C13.4746 13.2681 13.5789 12.4532 13.5789 11.8743C13.5789 10.0659 13.8532 9.31185 13.0448 9.11666C12.7765 9.05182 12.5791 9.00904 11.893 9.00213C11.0124 8.99299 10.267 9.0048 9.84501 9.21158C9.56425 9.34907 9.34767 9.65545 9.47958 9.67305C9.64268 9.69489 10.0121 9.77265 10.208 10.0394C10.4609 10.3834 10.452 11.1562 10.452 11.1562C10.452 11.1562 10.5973 13.285 10.1126 13.5495C9.77995 13.7309 9.3236 13.3606 8.34384 11.6676C7.84182 10.8003 7.46279 9.84173 7.46279 9.84173C7.46279 9.84173 7.38971 9.66258 7.25936 9.56676C7.10115 9.45067 6.88011 9.41368 6.88011 9.41368L4.53488 9.42906C4.53488 9.42906 4.18282 9.43886 4.05358 9.59194C3.9386 9.72809 4.04445 10.0097 4.04445 10.0097C4.04445 10.0097 5.88052 14.3053 7.95947 16.4701C9.86573 18.4548 12.0305 18.3244 12.0305 18.3244Z" fill="white"/>
</svg>
