<svg width="25" height="25" viewBox="0 0 25 25" fill="none" xmlns="http://www.w3.org/2000/svg"><g clip-path="url(#a)"><path d="M12.5 25C19.404 25 25 19.404 25 12.5 25 5.597 19.404 0 12.5 0 5.597 0 0 5.597 0 12.5 0 19.404 5.597 25 12.5 25z" fill="#CB2027"/><path d="M13.047 16.259c-.945-.073-1.342-.542-2.083-.992-.407 2.137-.905 4.186-2.38 5.256-.455-3.23.668-5.656 1.19-8.23-.89-1.498.107-4.512 1.983-3.77 2.31.914-1.999 5.568.893 6.15 3.02.606 4.253-5.24 2.38-7.141-2.705-2.746-7.875-.063-7.24 3.867.155.961 1.148 1.253.397 2.579-1.731-.384-2.248-1.75-2.181-3.57.107-2.98 2.677-5.067 5.256-5.356 3.26-.365 6.322 1.198 6.744 4.265.475 3.462-1.472 7.211-4.959 6.942z" fill="#F1F2F2"/></g><defs><clipPath id="a"><path fill="#fff" d="M0 0h25v25H0z"/></clipPath></defs></svg>