<svg width="25" height="25" viewBox="0 0 25 25" fill="none" xmlns="http://www.w3.org/2000/svg"><path d="M12.5 25C19.404 25 25 19.404 25 12.5S19.404 0 12.5 0 0 5.596 0 12.5 5.596 25 12.5 25z" fill="#4D76A1"/><path fill-rule="evenodd" clip-rule="evenodd" d="M12.03 18.324h.982s.296-.032.447-.195c.14-.15.135-.431.135-.431s-.02-1.317.592-1.51c.602-.191 1.376 1.272 2.195 1.835.62.425 1.091.332 1.091.332l2.192-.03s1.147-.071.603-.973c-.044-.073-.316-.667-1.63-1.886-1.374-1.275-1.19-1.069.466-3.275 1.008-1.344 1.411-2.165 1.285-2.516-.12-.335-.862-.246-.862-.246l-2.468.015s-.182-.025-.318.056c-.133.08-.218.265-.218.265s-.39 1.04-.912 1.924c-1.099 1.867-1.538 1.965-1.718 1.85-.417-.27-.313-1.086-.313-1.665 0-1.808.274-2.562-.534-2.757-.268-.065-.466-.108-1.152-.115-.88-.009-1.626.003-2.048.21-.28.137-.497.443-.365.461.163.022.532.1.728.366.253.344.244 1.117.244 1.117s.145 2.129-.34 2.393c-.332.182-.788-.188-1.768-1.881-.502-.868-.881-1.826-.881-1.826s-.073-.18-.204-.275c-.158-.116-.379-.153-.379-.153l-2.345.015s-.352.01-.481.163c-.115.136-.01.418-.01.418s1.837 4.295 3.915 6.46c1.907 1.985 4.072 1.854 4.072 1.854z" fill="#fff"/></svg>